<svg xmlns="http://www.w3.org/2000/svg" width="840" height="748" viewBox="0 0 840 748">
<g>
<path d="M 0.00 0.00 L 840.00 0.00 L 840.00 748.00 L 0.00 748.00 ZM 418.00 670.83 C440.83,672.09 445.37,672.10 464.29,670.98 C489.12,669.50 498.00,668.41 517.60,664.44 C549.30,658.01 574.43,649.48 600.17,636.39 C617.54,627.56 622.36,624.37 621.54,622.23 C621.23,621.43 619.03,617.79 616.64,614.14 C614.26,610.49 610.33,604.22 607.90,600.22 C605.48,596.22 600.93,588.79 597.79,583.72 C594.66,578.65 591.16,572.92 590.03,571.00 C588.89,569.08 584.41,561.88 580.07,555.00 C575.72,548.12 569.86,538.57 567.03,533.77 C564.20,528.98 561.58,524.86 561.19,524.62 C560.81,524.38 556.90,526.43 552.50,529.17 C528.94,543.83 501.28,553.14 472.69,556.04 C457.32,557.60 420.44,556.79 409.50,554.65 C385.08,549.88 371.48,545.76 357.00,538.74 C339.22,530.12 325.60,520.56 311.14,506.56 C283.60,479.89 268.16,449.64 260.33,407.00 C258.15,395.11 257.85,352.07 259.86,339.50 C261.59,328.65 267.44,306.26 270.66,298.14 C280.45,273.42 292.51,255.42 311.63,236.99 C337.94,211.63 370.53,196.08 411.50,189.33 C427.33,186.72 467.64,186.74 484.50,189.37 C505.57,192.66 529.55,201.62 550.68,214.11 L 560.86 220.13 L 573.68 213.43 C580.73,209.75 589.88,204.83 594.00,202.50 C598.12,200.18 605.33,196.37 610.00,194.05 C614.67,191.72 618.95,189.48 619.50,189.05 C620.05,188.63 626.12,185.32 633.00,181.71 C655.79,169.74 670.35,161.51 670.71,160.39 C671.15,159.04 658.13,146.19 648.50,138.47 C644.65,135.38 637.00,129.91 631.50,126.30 C626.00,122.70 619.92,118.71 618.00,117.43 C616.08,116.15 609.48,112.45 603.33,109.20 C553.37,82.77 487.26,69.44 423.50,72.94 C411.95,73.58 399.35,74.53 395.50,75.06 C377.38,77.55 372.62,78.36 360.50,81.04 C312.90,91.57 271.86,109.81 236.00,136.39 C200.92,162.39 171.07,198.66 150.75,240.00 C139.04,263.81 128.87,298.02 124.77,327.42 C121.88,348.18 121.63,392.94 124.30,413.00 C133.87,484.81 165.23,545.50 216.45,591.29 C231.61,604.85 237.65,609.52 252.50,619.18 C298.54,649.11 357.39,667.48 418.00,670.83 ZM 664.92 585.49 C668.81,591.65 670.64,593.76 671.42,592.98 C672.73,591.67 673.55,299.46 672.24,298.65 C671.78,298.37 659.12,304.74 644.11,312.82 C629.09,320.89 612.91,329.54 608.15,332.03 C592.03,340.47 560.52,357.24 557.50,358.98 C555.85,359.94 549.55,363.33 543.50,366.51 C537.45,369.69 522.83,377.47 511.00,383.79 C469.22,406.13 431.84,426.06 411.03,437.09 C401.97,441.89 394.37,446.38 394.14,447.07 C393.81,448.07 412.49,448.24 486.58,447.91 L 579.43 447.50 L 587.55 460.50 C592.01,467.65 600.10,480.70 605.52,489.50 C610.93,498.30 620.52,513.83 626.82,524.00 C638.58,542.98 644.38,552.38 654.00,567.99 C657.03,572.90 661.94,580.78 664.92,585.49 Z" fill="rgb(1,1,1)"/>
<path d="M 664.92 585.49 C661.94,580.78 657.03,572.90 654.00,567.99 C644.38,552.38 638.58,542.98 626.82,524.00 C620.52,513.83 610.93,498.30 605.52,489.50 C600.10,480.70 592.01,467.65 587.55,460.50 L 579.43 447.50 L 486.58 447.91 C412.49,448.24 393.81,448.07 394.14,447.07 C394.15,447.04 394.18,447.00 394.22,446.96 C395.60,448.18 466.21,448.39 534.50,447.34 L 577.50 446.68 L 580.75 443.14 C582.54,441.20 584.00,439.27 584.00,438.85 C584.00,438.43 587.26,432.85 591.25,426.46 C595.24,420.06 599.40,413.37 600.50,411.59 C613.18,391.06 622.55,376.44 623.20,376.17 C623.64,375.98 624.00,375.40 624.00,374.86 C624.00,374.33 625.72,371.33 627.83,368.20 C629.93,365.06 631.93,361.83 632.27,361.00 C632.60,360.17 636.49,353.88 640.90,347.00 C645.32,340.12 650.79,331.35 653.06,327.50 C655.33,323.65 659.10,317.58 661.44,314.00 C667.69,304.43 670.02,300.08 668.93,300.00 C670.92,299.06 672.11,298.57 672.24,298.65 C673.55,299.46 672.73,591.67 671.42,592.98 C670.64,593.76 668.81,591.65 664.92,585.49 ZM 623.89 323.66 C616.74,327.49 610.81,330.64 608.16,332.03 C602.53,334.97 594.81,339.04 587.10,343.14 C594.74,339.08 602.42,335.03 608.15,332.03 C610.73,330.68 616.64,327.54 623.89,323.66 Z" fill="rgb(208,209,211)"/>
<path d="M 418.00 670.83 C357.39,667.48 298.54,649.11 252.50,619.18 C237.65,609.52 231.61,604.85 216.45,591.29 C165.23,545.50 133.87,484.81 124.30,413.00 C121.63,392.94 121.88,348.18 124.77,327.42 C128.87,298.02 139.04,263.81 150.75,240.00 C171.07,198.66 200.92,162.39 236.00,136.39 C271.86,109.81 312.90,91.57 360.50,81.04 C372.62,78.36 377.38,77.55 395.50,75.06 C399.35,74.53 411.95,73.58 423.50,72.94 C487.26,69.44 553.37,82.77 603.33,109.20 C609.48,112.45 616.08,116.15 618.00,117.43 C619.92,118.71 626.00,122.70 631.50,126.30 C637.00,129.91 644.65,135.38 648.50,138.47 C658.13,146.19 671.15,159.04 670.71,160.39 C670.35,161.51 655.79,169.74 633.00,181.71 C626.12,185.32 620.05,188.63 619.50,189.05 C618.95,189.48 614.67,191.72 610.00,194.05 C605.33,196.37 598.12,200.18 594.00,202.50 C589.88,204.83 580.73,209.75 573.68,213.43 L 560.86 220.13 L 550.68 214.11 C529.55,201.62 505.57,192.66 484.50,189.37 C467.64,186.74 427.33,186.72 411.50,189.33 C370.53,196.08 337.94,211.63 311.63,236.99 C292.51,255.42 280.45,273.42 270.66,298.14 C267.44,306.26 261.59,328.65 259.86,339.50 C257.85,352.07 258.15,395.11 260.33,407.00 C268.16,449.64 283.60,479.89 311.14,506.56 C325.60,520.56 339.22,530.12 357.00,538.74 C371.48,545.76 385.08,549.88 409.50,554.65 C420.44,556.79 457.32,557.60 472.69,556.04 C501.28,553.14 528.94,543.83 552.50,529.17 C556.90,526.43 560.81,524.38 561.19,524.62 C561.58,524.86 564.20,528.98 567.03,533.77 C569.86,538.57 575.72,548.12 580.07,555.00 C584.41,561.88 588.89,569.08 590.03,571.00 C591.16,572.92 594.66,578.65 597.79,583.72 C600.93,588.79 605.48,596.22 607.90,600.22 C610.33,604.22 614.26,610.49 616.64,614.14 C619.03,617.79 621.23,621.43 621.54,622.23 C622.36,624.37 617.54,627.56 600.17,636.39 C574.43,649.48 549.30,658.01 517.60,664.44 C498.00,668.41 489.12,669.50 464.29,670.98 C445.37,672.10 440.83,672.09 418.00,670.83 ZM 394.20 446.91 C394.40,446.31 401.97,441.89 411.03,437.09 C431.84,426.06 469.22,406.13 511.00,383.79 C522.83,377.47 537.45,369.69 543.50,366.51 C549.55,363.33 555.85,359.94 557.50,358.98 C560.56,357.21 592.45,340.24 608.16,332.03 C612.92,329.54 628.31,321.31 642.34,313.75 C656.38,306.19 668.33,300.00 668.90,300.00 C670.06,300.00 667.74,304.35 661.44,314.00 C659.10,317.58 655.33,323.65 653.06,327.50 C650.79,331.35 645.32,340.12 640.90,347.00 C636.49,353.88 632.60,360.17 632.27,361.00 C631.93,361.83 629.93,365.06 627.83,368.20 C625.72,371.33 624.00,374.33 624.00,374.86 C624.00,375.40 623.64,375.98 623.20,376.17 C622.55,376.44 613.18,391.06 600.50,411.59 C599.40,413.37 595.24,420.06 591.25,426.46 C587.26,432.85 584.00,438.43 584.00,438.85 C584.00,439.27 582.54,441.20 580.75,443.14 L 577.50 446.68 L 534.50 447.34 C465.33,448.40 393.77,448.18 394.20,446.91 Z" fill="rgb(253,253,252)"/>
</g>
</svg>